<?xml version="1.0" encoding="utf-8"?>
<!-- Generator: Adobe Illustrator 22.0.0, SVG Export Plug-In . SVG Version: 6.00 Build 0)  -->
<svg version="1.1" id="Capa_1" xmlns="http://www.w3.org/2000/svg" xmlns:xlink="http://www.w3.org/1999/xlink" x="0px" y="0px"
	 viewBox="0 0 925.3 866.8" style="enable-background:new 0 0 925.3 866.8;" xml:space="preserve">
<style type="text/css">
	.st0{fill:#9B63CE;}
</style>
<g>
	<path class="st0" d="M84.7,652.4C64.9,614,50.8,572.9,43.2,530.8c-7.6-42-8.9-84.8-4-126.5c4.8-41.7,15.9-82.5,32.6-120.4
		c16.6-38,38.9-73.1,65.5-104c26.6-30.9,57.6-57.6,91.6-79.1c33.9-21.5,70.9-37.7,109-48.2c76.4-21,157.6-18.1,230.3,6.6
		c-74.9-16.6-153.4-10.1-222.4,17.2c-34.5,13.7-66.7,32.3-95.2,55.1c-28.5,22.8-53.4,49.6-73.8,79.2c-20.3,29.6-36.1,61.9-46.6,95.5
		c-10.6,33.6-15.9,68.5-16.1,103.2c-0.3,34.7,4.7,69.1,14.3,101.7c9.7,32.6,24.3,63.4,42.8,91.2c15.3,23.1,9,54.1-14.1,69.4
		s-54.1,9-69.4-14.1c-1-1.5-1.9-3.1-2.8-4.7L84.7,652.4z"/>
</g>
<g>
	<path class="st0" d="M840.1,205.1c19.8,38.5,33.9,79.6,41.5,121.6c7.6,42,8.9,84.8,4,126.5c-4.8,41.7-15.9,82.5-32.6,120.4
		c-16.6,38-38.9,73.1-65.5,104c-26.6,30.9-57.6,57.6-91.6,79.1c-33.9,21.5-70.9,37.7-109,48.2c-76.4,21-157.6,18.1-230.3-6.6
		c74.9,16.6,153.4,10.1,222.4-17.2c34.5-13.7,66.7-32.3,95.2-55.1c28.5-22.8,53.4-49.6,73.8-79.2c20.3-29.6,36.1-61.9,46.6-95.5
		c10.6-33.6,15.9-68.5,16.1-103.2c0.3-34.7-4.7-69.1-14.3-101.7c-9.7-32.6-24.3-63.4-42.8-91.2c-15.3-23.1-9-54.1,14.1-69.4
		c23.1-15.3,54.1-9,69.4,14.1c1,1.5,1.9,3.1,2.8,4.7L840.1,205.1z"/>
</g>
</svg>
