<?xml version="1.0" encoding="utf-8"?>
<!-- Generator: Adobe Illustrator 22.0.0, SVG Export Plug-In . SVG Version: 6.00 Build 0)  -->
<svg version="1.1" id="Capa_1" xmlns="http://www.w3.org/2000/svg" xmlns:xlink="http://www.w3.org/1999/xlink" x="0px" y="0px"
	 viewBox="0 0 1000 1000" style="enable-background:new 0 0 1000 1000;" xml:space="preserve">
<style type="text/css">
	.st0{fill:#994990;}
	.st1{fill:#FFFFFF;}
	.st2{opacity:0.3;stroke:#FFFFFF;stroke-miterlimit:10;}
</style>
<path class="st0" d="M941.2,199.3c-0.1-83.4-68.1-155.3-151.1-156.7l-564.5-0.8c-97.9,1.4-178,73.3-178.2,156.7l0,600
	c0.1,81.6,74.2,151.3,170.1,155.7L797,955c81.3-4.5,144.1-74.1,144.2-155.7L941.2,199.3z"/>
<g>
	<polygon class="st1" points="222.8,703.1 495.4,231 767.9,703.1 599.8,703.1 495.4,522.1 390.9,703.1 	"/>
</g>
<path class="st2" d="M494.7,41.9H225.6c-97.9,1.4-178,73.3-178.2,156.7l0,600c0.1,81.6,74.2,151.3,170.1,155.7l278,0.8L494.7,41.9z"
	/>
</svg>
