<?xml version="1.0" encoding="utf-8"?>
<!-- Generator: Adobe Illustrator 22.0.0, SVG Export Plug-In . SVG Version: 6.00 Build 0)  -->
<svg version="1.1" xmlns="http://www.w3.org/2000/svg" xmlns:xlink="http://www.w3.org/1999/xlink" x="0px" y="0px"
	 viewBox="0 0 9644.6 1945" style="enable-background:new 0 0 9644.6 1945;" xml:space="preserve">
<style type="text/css">
	.st0{display:none;}
	.st1{display:inline;fill:#040404;}
	.st2{display:inline;fill:#F7F7F7;}
	.st3{display:inline;fill:#FAFAFA;}
	.st4{display:inline;fill:#F9F9F9;}
	.st5{display:inline;fill:#F6F6F6;}
	.st6{display:inline;fill:#FBFBFB;}
	.st7{display:inline;fill:#EBEBEB;}
	.st8{display:inline;fill:#84356F;stroke:#FFFFFF;stroke-miterlimit:10;}
	.st9{display:inline;fill:#B04795;stroke:#FFFFFF;stroke-miterlimit:10;}
	.st10{display:inline;fill:#FDFCFD;stroke:#FFFFFF;stroke-miterlimit:10;}
	.st11{display:inline;fill:#BEBDBE;stroke:#FFFFFF;stroke-miterlimit:10;}
	.st12{fill:#B04795;}
	.st13{fill:#FFFFFF;}
	.st14{opacity:0.3;stroke:#FFFFFF;stroke-miterlimit:10;}
	.st15{display:inline;fill:#FFFFFF;}
	.st16{font-family:'Monofonto-Regular';}
	.st17{font-size:1084.4935px;}
	.st18{letter-spacing:-39;}
	.st19{display:inline;}
	.st20{fill:#E1E1E1;}
</style>
<g id="Capa_2" class="st0">
	<rect x="-433.9" y="-306.4" class="st1" width="11046" height="2640.4"/>
</g>
<g id="Capa_1" class="st0">
	<path class="st2" d="M6888.2,1556.1c-41.9,90.2-174.3,63.9-212.7-11.4c-31.5-61.9-33.2-240.8,0.3-301.9
		c31.8-58,104.3-86.5,178.1-70c64.6,14.4,110.3,69.6,114.4,136.2c1.1,18.2-3.8,26.2-22.8,23.3c-6.4-1-13.3-1.1-19.6,0
		c-27.6,4.6-41.4-2.9-43.7-34.6c-2.2-30-28.9-47.6-62.4-49.9c-36-2.5-68.6,13.3-76,44.5c-15.4,65.3-16.2,132.1,0.1,197.3
		c8.1,32.3,35.3,45.7,72.7,44.8c34-0.8,57.6-15.9,65.8-42.5c5.1-16.5,5.7-30.2-18.7-26.8c-8.3,1.1-16.9,0.2-25.3,0.2
		c-54.6,0-53.7,0-54.1-53.9c-0.1-18.4,4.7-24.3,23.5-23.7c45.9,1.3,91.9,1,137.9,0.1c15.9-0.3,23.3,2,22.8,20.9
		c-1.3,59.1-1.1,118.2-0.1,177.3c0.3,16.8-5.5,20.7-20.7,19.5c-16.8-1.4-36.4,4.3-49.7-2.7
		C6885.3,1595.8,6899.2,1573.1,6888.2,1556.1z"/>
	<path class="st3" d="M3268.8,1602.4c-3.6,1.6-4.5,2.3-5.3,2.3c-25.3-0.1-55.5,8.2-74.5-2.8c-19.8-11.4-15.1-45.4-21.1-69.5
		c-3.3-13-7.2-19.2-21.8-18.8c-36.5,0.9-73.1,0.8-109.7,0.1c-12.7-0.2-19.5,3.7-20.6,16.6c-0.4,4.6-1.6,9.2-2.7,13.8
		c-16,67.2-15.9,66.9-85.7,61.2c-11.5-0.9-13.6-3.1-10.8-14.7c32-132.7,63.5-265.6,94.9-398.4c2.9-12.2,8.6-15.9,21.2-15.6
		c39.3,1,78.8,0.9,118.1,0c12.8-0.3,18.3,4,21.1,15.9C3203.9,1329.1,3236.3,1465.4,3268.8,1602.4z M3037.6,1433.5
		c37.7,0,72.2,0,107.4,0c-16.8-73.2-32.9-143.7-50.8-221.6c-5.7,9.1-7.9,11.2-8.5,13.8C3069.5,1294.7,3053.6,1363.9,3037.6,1433.5z"
		/>
	<path class="st4" d="M5396.8,1553.8c-20.8,43.1-52.3,57.3-91.3,59.6c-56.3,3.3-106.8-26-127.1-78.6
		c-20.2-52.5-20.8-106.7-0.5-159.3c24.7-63.9,92.8-96.1,158.7-78.5c27.2,7.3,43.2,27.4,57.1,48.6c12.4-2.8,7.6-11.1,7.7-16.4
		c0.4-45,0.7-90,0-135c-0.2-13.2,3.3-17.1,17-17.6c62.3-2.4,62.2-2.9,62.2,59.8c0,114.4-0.6,228.8,0.6,343.2
		c0.2,21.4-5.6,29.3-26.3,25.5c-0.9-0.2-1.9,0-2.8,0C5405.7,1605.1,5405.7,1605.1,5396.8,1553.8z M5401.7,1453
		c0-51.3-32-85.5-80.1-85.4c-48.8,0.1-79.2,32.8-79.3,85.6c-0.2,52.5,30.4,85.2,79.6,85.1C5370.5,1538.2,5401.7,1504.9,5401.7,1453z
		"/>
	<path class="st4" d="M4643,1553.2c-29.4,59.4-74.8,67.8-124.9,55.6c-53.6-12.9-83.1-52.1-95.1-104.1
		c-11.1-47.8-9.2-95.3,12.9-140.1c40.1-81.1,133.8-95.2,195.8-30.2c1.1,1.1,3.4,1,5.2,1.4c10.4-35,10.5-33.5,52.1-35.5
		c25-1.2,33.4,5,32.3,31.5c-2.3,56.2-0.7,112.6-0.7,168.9c0,14-2.6,27.8,18.7,30.9c14.6,2.1,7.1,17.2,7.3,26.1
		c1,48.9,0.6,48.3-48.6,47.6C4668.2,1604.8,4651,1590.7,4643,1553.2z M4496.2,1452.2c-0.1,45.2,18,74.9,51.1,84
		c42.8,11.8,81.4-11.7,91.3-55.7c12.7-56.5-11-103.9-55.9-111.7c-0.9-0.2-1.9-0.2-2.8-0.3
		C4529.1,1361.7,4496.3,1394.4,4496.2,1452.2z"/>
	<path class="st4" d="M8736.3,1559.8c-27,49-68.3,59.3-116.5,50.7c-51-9.1-82.7-41.7-98.5-89.5c-17.1-51.6-16-103.4,6.6-153.3
		c26.3-57.8,84.8-85.7,146-71.9c24.3,5.5,39,23.7,53.9,40.9c2.9-1.8,5.9-3,5.8-3.7c-6.5-37.4,18.3-32.9,41.8-32.4
		c38.3,0.8,38.3,0.2,38.3,38.4c0,55.2,0.2,110.5-0.1,165.7c-0.1,13.2,0.8,25.1,17.7,25.9c8.7,0.4,9.8,4.9,10.8,12.4
		c7.5,56.1-6.7,70.3-62.4,61.3C8755.8,1600.5,8742.2,1585.8,8736.3,1559.8z M8589.5,1452.9c0,53.5,26.3,85,71.6,85.4
		c46.6,0.4,74-31.6,73.8-86.3c-0.2-50.1-25.6-81.8-67.5-84.1C8619.3,1365.3,8589.6,1397.7,8589.5,1452.9z"/>
	<path class="st3" d="M6122.3,1340.1c13.2-14.8,0-34.7,12.4-37.3c21.6-4.5,44.8-2.7,67.1-1.2c10.5,0.7,5.7,12.2,5.8,18.7
		c0.4,60,0.3,120,0.2,180c0,14.5-1.1,29.6,19.5,30.4c7.9,0.3,8.9,5,8.7,11c0,0.9,0.2,1.9,0,2.8c-6.2,19.7,14.5,54.7-10.2,58.1
		c-50.8,7.1-76.8,10.6-93.2-40.3c-1.8,0.1-4.5-0.5-5.2,0.4c-53.5,69.6-150.6,66.8-194.9-8.8c-39.4-67.3-37.9-138.2,1.7-205.4
		c27.3-46.4,86.1-66.3,137.6-51.6C6094.2,1303.3,6110.4,1318,6122.3,1340.1z M6129.9,1453.3c0.1-51.6-25.9-83.8-69.1-85.5
		c-44.9-1.8-73.8,27.4-77.2,78c-3.5,51.4,23.1,88.7,65.5,92.2C6099.3,1542,6129.8,1510,6129.9,1453.3z"/>
	<path class="st3" d="M7248.5,1560.7c-54.3,55.8-99.6,67.6-153.1,37.4c-58.3-33-73.5-87.7-72.4-150.5c1-60,18.8-110.8,74-141.3
		c46.1-25.5,98.3-16,134.4,22.3c3.1,3.3,5,8.6,10.8,6.3c5.5-2.2,4.9-7.8,4.2-12c-4.1-23.3,10.2-22.4,26.5-22.3
		c50.8,0.4,50.8,0,50.8,50.8c0,49.6,0,99.2,0,148.9c0,14.4-0.2,27.9,19.9,31c15.5,2.4,7.7,16.8,7.9,25.4c1,50.3,0.6,49.6-49.7,48.6
		C7271.6,1604.6,7255.9,1588.4,7248.5,1560.7z M7246.6,1448.7c-0.4-3.7-1.2-12-2.5-20.3c-6.2-37.9-33.8-61.2-71.6-60.8
		c-36.4,0.4-63.4,23.5-69.6,60c-2.6,15.7-3.2,31.3-0.6,47.2c7,43.4,36.9,67.1,80.5,62.9C7222.4,1534,7246.4,1502.4,7246.6,1448.7z"
		/>
	<path class="st2" d="M3876.9,1478.4c-30.9,0-61.9,0.9-92.7-0.3c-19.9-0.7-19.4,8.2-13.4,21.9c17.8,40,85.7,53.3,118.3,20.9
		c13.4-13.3,22.8-15.5,36.7-4.6c2.9,2.3,6.5,3.7,9.7,5.6c38.7,21.7,40.1,33.4,2.7,60.5c-54.1,39.3-114.1,41.4-172.9,14.5
		c-55.8-25.5-78.7-75.2-79.8-134.7c-2-109.8,65.2-176.2,168.8-168c86.5,6.9,147.5,86.6,132.7,172c-2.1,12.3-8.8,12.2-17.5,12.2
		C3938.7,1478.4,3907.8,1478.4,3876.9,1478.4z M3836.5,1412.7c18.8,0,37.5-0.3,56.3,0.1c12.6,0.3,15.2-4.9,9.3-15.1
		c-14.2-24.3-36.7-33.4-63.7-34c-28.6-0.7-50.7,11.1-65.9,35.3c-5.3,8.4-4.1,14,7.7,13.8C3799,1412.5,3817.8,1412.7,3836.5,1412.7z"
		/>
	<path class="st5" d="M4895.2,1347.2c23.9-40.1,58.3-57.2,103.4-53.3c54.1,4.7,90.2,39,94.8,93.2c5.8,67.4,1.5,135,2.5,202.5
		c0.1,6.1,2.1,14.8-7.6,15.1c-21.5,0.6-43.3,1.5-64.6-0.6c-12-1.2-6.5-13.8-6.6-21.1c-0.5-50.7,0.3-101.3-0.5-152
		c-0.5-36.2-13.5-55.7-39.6-63.9c-37.8-11.8-71.2,7-81.5,46.7c-9.9,37.8-3.3,76.6-5,114.9c-0.4,10.3-0.1,20.6-0.1,31
		c0,45.4-0.1,43.7-44.8,46c-26.2,1.3-34.9-4.4-34.1-32.7c2.2-83.4,1.3-167,0.4-250.5c-0.2-17.2,4-24.7,21.6-21.7
		c2.7,0.5,5.6,0.1,8.4,0.1C4887.6,1300.8,4887.6,1300.8,4895.2,1347.2z"/>
	<path class="st4" d="M7939.9,1293.2c71.5,4,117.7,35.9,139.2,94.2c6.8,18.4,7.6,30.4-16.3,32.2c-6.4,0.5-12.9,2.6-18.9,5.2
		c-22.2,9.5-35.1,6.7-45.7-19.3c-13.5-33.2-52.5-45.7-88.5-35c-46.1,13.6-70.5,70.1-51.7,120.1c15.5,41.3,68.2,60.9,110.9,40.8
		c17.9-8.4,30-22.7,35.1-41.6c4-14.9,11.8-17,24.7-12.1c6.1,2.3,12.7,3.1,19,4.7c43.3,10.9,44,12.5,24.2,52.6
		c-31,62.7-100.7,91.4-180.1,74.1c-69.5-15.1-113.9-67.4-117.7-138.7C7768.2,1362.6,7838.4,1287.6,7939.9,1293.2z"/>
	<path class="st2" d="M5678.8,1348c20.6-48.2,57.8-60.2,103.9-52.8c50.8,8.2,91.1,71.1,77.1,119.2c-2,6.7-5.4,8.9-11.6,9.5
		c-18.6,1.6-37.3,3-55.9,5.3c-10.8,1.3-11.3-4.2-12.9-12.7c-7.3-39-22.1-51.8-54.7-49.3c-29.6,2.3-46.8,21.8-48.4,58
		c-1.3,29,0.3,58.1-0.6,87.1c-0.5,15.1,5.5,18.4,19.6,18.8c51.5,1.3,50.8,1.9,50.4,54.2c-0.1,16.2-5,20.4-20.6,20.1
		c-57.1-0.9-114.3-0.8-171.4,0c-14.5,0.2-21.1-3.6-19-18.7c0.6-4.6,0.1-9.4,0.1-14c0-40.8,0-41.8,40.3-41.4
		c17.5,0.2,22.5-5.2,22-22.2c-1.1-37.4-1.2-75,0-112.4c0.6-17.7-5.6-24.5-22.4-21.3c-27.1,5.2-37.4-5.4-32.6-32.5
		c1.5-8.2,1-16.9,0-25.2c-1.6-13.8,4.1-17.4,17.3-17c29,0.9,58.2,1.8,87.1-0.2c21.3-1.5,29,5.2,25.7,26.2
		C5671.5,1332.2,5669.6,1339.3,5678.8,1348z"/>
	<path class="st3" d="M3506.3,1353.9c0,51.6,0.6,103.2-0.4,154.8c-0.3,16.8,3.5,23.8,21.7,22.4c20.5-1.6,41.3,0.1,61.9-0.5
		c11.6-0.3,15.8,3.1,16.7,15.7c4.1,58.8,4.6,58.7-54.8,58.7c-68.5,0-137-0.5-205.4,0.3c-17.1,0.2-24.5-2.5-24.2-22.4
		c0.7-52.2-0.4-52.2,50.7-52.2c55.1,0,55.1,0,55.1-55.6c0-67.5-0.6-135.1,0.4-202.6c0.3-17.5-4.9-23.8-22.2-21.6
		c-10.2,1.3-20.7,0.9-30.9,0.1c-15.6-1.2-39.5,7.5-44.8-4.1c-7.9-17.1-3.2-40-3.7-60.5c-0.3-9.8,6.9-9.4,13.5-9.5
		c50.7,0,101.3,0.6,152-0.4c16.7-0.3,14.8,9.2,14.7,19.6C3506.2,1248.8,3506.2,1301.4,3506.3,1353.9z"/>
	<path class="st6" d="M7533.2,1343.9c7.5,2.2,8.9-1.3,10.9-4.5c27.3-44.4,69.2-58.2,118.1-38.8c39.3,15.5,67.8,69.4,59.5,111.2
		c-1.6,8-4.9,11.3-12.5,12c-18.7,1.6-37.3,3.2-55.9,5.4c-13.6,1.6-11.8-8.5-13.5-16.3c-7.4-34.2-22.7-47.7-52.2-46.2
		c-28.6,1.5-48.8,21.6-50.4,53.7c-1.5,30.9,0.5,62-0.8,92.9c-0.7,16.4,6.9,17.6,20.1,17.8c49.7,0.8,48.9,1.2,49.3,52.6
		c0.1,17.1-3.8,22.2-21.5,21.8c-56.3-1.2-112.6-1.1-168.9-0.1c-16.5,0.3-21.7-5.2-19.5-20.5c0.7-4.6,0.1-9.4,0.1-14.1
		c0-39.5,0-40.5,38.9-39.6c18.2,0.5,24.3-4.3,23.4-23.1c-1.5-35.6-1.7-71.4,0-106.9c1-20.3-3.5-29.2-25.7-26.7
		c-9.5,1.1-26.7,7.5-28.9-6.7c-3.2-20.8-0.6-42.6,1.5-63.9c0.5-5.1,10-2.9,15.3-2.9c28.1-0.2,56.4,1.3,84.4-0.5
		c21.2-1.4,31.3,4,27.4,26.8C7531.2,1333,7532.9,1339.2,7533.2,1343.9z"/>
	<path class="st3" d="M4056.4,1605c24-46.8,46.3-91.8,70.2-135.8c7.5-13.9,8.2-24.5,0.5-38.6c-22.7-41.5-43.7-83.9-65.4-126.1
		c3.7-1.9,5.1-2.9,6.6-3.3c66.1-16.5,98.4,18.7,117.6,75.8c4.2,12.6,8,32.8,21.3,33.4c14,0.6,14.3-21.2,22.8-31.9
		c3.9-5,5.7-11.7,8.6-17.6c33.9-67.9,33.9-67.9,115.1-57.1c-21,41.4-40.5,82.4-62.4,122.1c-9.2,16.7-9.8,29.6-0.5,46.6
		c23.4,42.2,44.5,85.7,68.6,132.6c-29.1,0-54-0.7-78.8,0.3c-12.9,0.5-15.4-8.6-19.3-16.7c-14.2-29.5-27.9-59.2-42.1-88.6
		c-2.3-4.7-3.2-11.8-9.7-12.6c-8.8-1.1-9.7,7.2-12.4,12.8c-14.3,29.4-29.3,58.5-42.5,88.4c-5.3,11.9-11.1,17.4-24.7,16.7
		C4106.6,1604.2,4083.2,1605,4056.4,1605z"/>
	<path class="st6" d="M8300.3,1605c-37.5,0-75-0.6-112.5,0.3c-14.6,0.4-21-1.9-21.1-19.1c-0.3-55.4-1.2-55.4,55-55.4
		c47.8,0,47.8,0,47.8-48.7c0-30-0.6-60,0.3-90c0.4-13.7-4.5-17.9-17.8-17.3c-20.6,0.9-41.2-0.2-61.8,0.4c-11.6,0.3-15.8-3-16.7-15.6
		c-4.1-58.8-4.6-58.8,54.7-58.8c33.7,0,67.5,0.8,101.2-0.4c15.2-0.5,18.6,4.6,18.4,18.9c-0.7,62.8,0.4,125.6-0.7,188.4
		c-0.3,18.2,4.3,26.2,23.1,23.1c4.6-0.8,9.4-0.1,14-0.1c53.4,0,52.6,0,52.9,52.4c0.1,16.8-3.4,22.9-21.5,22.2
		C8377.2,1604,8338.7,1605,8300.3,1605z"/>
	<path class="st7" d="M8392.1,1173.8c-17.6,28.6-32.3,53-47.7,77c-5,7.8-57.5,12.6-63.3,6.4c-1.5-1.6-2.5-5.2-1.8-7.2
		c8.7-23.5,17.8-46.9,26.9-70.3c1.9-4.9,6.4-6,11.5-6C8340.7,1173.9,8363.7,1173.8,8392.1,1173.8z"/>
</g>
<g id="Capa_9" class="st0">
	<path class="st8" d="M2087.2,1955.3c-10.2,0.9-20.4,2.6-30.6,2.6c-111.6,0.2-223.3,0.2-334.9,0.1
		c-129.2-0.2-218.5-87.4-218.9-216.6c-0.9-248.6-0.8-497.2,0-745.9c0.4-142.8,112.7-217.2,215.1-214.1
		c122.8,3.6,245.8,1.2,368.6,1.5c0,80.8-0.1,161.5-0.1,242.3c-5.6,1-5.5,5.9-6.8,9.8c-24.7,35.4-42.2,74.7-62.3,112.6
		c-80.4,151.3-160.4,302.7-240.6,454.1c-17,32.1-17,32.1,19.8,32.1c46.9,0,93.8-1.6,140.5,0.7c24.6,1.2,37.1-8.3,47.5-28.9
		c25.2-50.2,51.9-99.6,78.7-149c6-11.1,8.8-25.1,22.4-30.9c0.6,3,1.2,6,1.7,9C2087.2,1608.2,2087.2,1781.8,2087.2,1955.3z"/>
	<path class="st9" d="M2086.3,1025.2c0-80.8,0.1-161.5,0.1-242.3c124.6-0.2,249.3-2.2,373.9-0.1c106.9,1.8,194.5,94.1,194.7,201.2
		c0.3,256.8,0.3,513.6,0,770.4c-0.1,104.8-81,194.2-185.8,199.9c-127.2,6.9-254.6,4.3-382,1c0-173.6,0-347.1,0.1-520.7
		c32.2,59,64.2,118.1,96.7,176.9c5.5,9.9,8.1,22.7,24.8,22.6c63.5-0.7,127-0.3,194.8-0.3c-6.5-13.2-11.2-23.1-16.3-32.8
		c-33.8-64.6-67.8-129.1-101.6-193.8C2219.1,1280,2152.7,1152.6,2086.3,1025.2z"/>
	<path class="st10" d="M2086.3,1025.2c66.4,127.4,132.8,254.8,199.3,382.2c33.8,64.7,67.8,129.2,101.6,193.8
		c5.1,9.7,9.7,19.6,16.3,32.8c-67.8,0-131.3-0.4-194.8,0.3c-16.7,0.2-19.3-12.6-24.8-22.6c-32.5-58.8-64.5-117.9-96.7-176.9
		c-0.6-3-1.2-6-1.7-9c2.9-114.5-7.9-228.9-4.2-343.4c0.5-15.7-1.2-31.6-1.8-47.3C2080.8,1031,2080.7,1026.1,2086.3,1025.2z"/>
	<path class="st11" d="M2079.5,1035c0.7,15.8,2.4,31.6,1.8,47.3c-3.8,114.5,7.1,228.9,4.2,343.4c-13.7,5.7-16.4,19.8-22.4,30.9
		c-26.8,49.3-53.5,98.8-78.7,149c-10.4,20.7-22.9,30.1-47.5,28.9c-46.7-2.3-93.7-0.6-140.5-0.7c-36.8,0-36.8-0.1-19.8-32.1
		c80.2-151.4,160.2-302.8,240.6-454.1C2037.3,1109.7,2054.8,1070.3,2079.5,1035z"/>
	<path class="st9" d="M2078,1763"/>
</g>
<g id="Capa_5">
	<path class="st12" d="M1815.1,441.3c-0.2-145.2-118.5-270.3-263-272.7l-982.5-1.4c-170.4,2.5-309.9,127.5-310.1,272.7l0,1044.3
		c0.2,142.1,129.1,263.3,296,271l1008.6,1.4c141.6-7.8,250.9-128.9,251-271L1815.1,441.3z"/>
	<g>
		<polygon class="st13" points="564.6,1318 1039,496.4 1513.4,1318 1220.9,1318 1039,1003.1 857.2,1318 		"/>
	</g>
	<path class="st14" d="M1038,167.2H569.6c-170.4,2.5-309.9,127.5-310.1,272.7l0,1044.3c0.2,142.1,129.1,263.3,296,271l483.9,1.4
		L1038,167.2z"/>
</g>
<g id="Capa_4" class="st0">
	<text transform="matrix(1 0 0 1 2119.6003 1315.5446)" class="st15 st16 st17 st18">Alexandra García</text>
</g>
<g id="Capa_6" class="st0">
	<g class="st19">
		<path class="st13" d="M2469.9,1197.3h-168.1l-23.9,118.2h-138.8l181.1-786.3h139.9l182.2,786.3h-147.5L2469.9,1197.3z
			 M2328.9,1066.1h115l-56.4-277.6L2328.9,1066.1z"/>
		<path class="st13" d="M2988.3,1315.5H2856V654h-116V529.3h248.3V1315.5z"/>
		<path class="st13" d="M3291.9,1079.1c8.7,85.7,47.7,128,119.3,128c48.8,0,88.9-19.5,105.2-54.2l109.5,41.2
			c-38,99.8-126.9,132.3-213.6,132.3c-162.7,0-248.3-113.9-248.3-279.8c0-175.7,95.4-283.1,239.7-283.1c133.4,0,231,92.2,231,266.8
			c0,18.4,0,33.6-2.2,48.8H3291.9z M3508.8,1006.5c-6.5-79.2-42.3-126.9-109.5-126.9c-69.4,0-96.5,52.1-109.5,126.9H3508.8z"/>
		<path class="st13" d="M4128.1,1315.5h-138.8l-85.7-186.5l-90,186.5h-141l148.6-277.6l-139.9-262.4h136.6l81.3,167l86.8-167h136.6
			l-145.3,259.2L4128.1,1315.5z"/>
		<path class="st13" d="M4626.9,1315.5h-119.3v-54.2c-23.9,36.9-71.6,65.1-150.7,65.1c-126.9,0-187.6-72.7-187.6-167
			c0-99.8,66.2-172.4,203.9-172.4c54.2,0,96.5,10.8,121.5,23.9v-51c0-53.1-35.8-75.9-88.9-75.9c-47.7,0-81.3,18.4-99.8,47.7
			l-113.9-48.8c40.1-79.2,122.5-119.3,223.4-119.3c137.7,0,211.5,75.9,211.5,193V1315.5z M4494.6,1099.7
			c-20.6-13-61.8-24.9-101.9-24.9c-65.1,0-94.4,31.5-94.4,73.7c0,47.7,36.9,67.2,78.1,67.2c48.8,0,96.5-28.2,118.2-65.1V1099.7z"/>
		<path class="st13" d="M5136.7,1315.5h-132.3v-346c0-72.7-28.2-96.5-73.7-96.5c-55.3,0-85.7,35.8-108.4,71.6v370.9h-132.3V775.5
			h128v43.4c30.4-35.8,78.1-55.3,146.4-55.3c118.2,0,172.4,58.6,172.4,189.8V1315.5z"/>
		<path class="st13" d="M5361.2,763.5c49.9,0,98.7,15.2,133.4,49.9V529.3h132.3v786.3h-128v-43.4c-27.1,34.7-79.2,54.2-137.7,54.2
			c-139.9,0-186.5-116-186.5-280.9S5221.3,763.5,5361.2,763.5z M5494.5,943.6c-24.9-40.1-60.7-70.5-104.1-70.5
			c-55.3,0-83.5,48.8-83.5,172.4c0,122.5,28.2,172.4,82.4,172.4c44.5,0,85.7-33.6,105.2-71.6V943.6z"/>
		<path class="st13" d="M6132.2,889.3l-117.1,57.5c-8.7-38-26-73.7-75.9-73.7c-53.1,0-92.2,41.2-106.3,95.4v347h-124.7V775.5h120.4
			v72.7c42.3-59.6,95.4-84.6,156.2-84.6C6070.4,763.5,6125.7,814.5,6132.2,889.3z"/>
		<path class="st13" d="M6639.8,1315.5h-119.3v-54.2c-23.9,36.9-71.6,65.1-150.7,65.1c-126.9,0-187.6-72.7-187.6-167
			c0-99.8,66.2-172.4,203.9-172.4c54.2,0,96.5,10.8,121.5,23.9v-51c0-53.1-35.8-75.9-88.9-75.9c-47.7,0-81.3,18.4-99.8,47.7
			l-113.9-48.8c40.1-79.2,122.5-119.3,223.4-119.3c137.7,0,211.5,75.9,211.5,193V1315.5z M6507.5,1099.7
			c-20.6-13-61.8-24.9-101.9-24.9c-65.1,0-94.4,31.5-94.4,73.7c0,47.7,36.9,67.2,78.1,67.2c48.8,0,96.5-28.2,118.2-65.1V1099.7z"/>
		<path class="st13" d="M7631,1315.5h-117.1v-44.5c-20.6,33.6-72.7,55.3-128,55.3c-119.3,0-190.9-99.8-190.9-251.6V770
			c0-150.7,70.5-251.6,229.9-251.6c132.3,0,207.1,69.4,219.1,208.2h-132.3c0-48.8-28.2-88.9-86.8-88.9c-55.3,0-91.1,34.7-91.1,132.3
			v304.7c0,98.7,36.9,132.3,84.6,132.3s73.7-33.6,73.7-113.9V983.7h-64V870.9H7631V1315.5z"/>
		<path class="st13" d="M8149.4,1315.5h-119.3v-54.2c-23.9,36.9-71.6,65.1-150.7,65.1c-126.9,0-187.6-72.7-187.6-167
			c0-99.8,66.2-172.4,203.9-172.4c54.2,0,96.5,10.8,121.5,23.9v-51c0-53.1-35.8-75.9-88.9-75.9c-47.7,0-81.3,18.4-99.8,47.7
			l-113.9-48.8c40.1-79.2,122.5-119.3,223.4-119.3c137.7,0,211.5,75.9,211.5,193V1315.5z M8017.1,1099.7
			c-20.6-13-61.8-24.9-101.9-24.9c-65.1,0-94.4,31.5-94.4,73.7c0,47.7,36.9,67.2,78.1,67.2c48.8,0,96.5-28.2,118.2-65.1V1099.7z"/>
		<path class="st13" d="M8648.2,889.3l-117.1,57.5c-8.7-38-26-73.7-75.9-73.7c-53.1,0-92.2,41.2-106.3,95.4v347h-124.7V775.5h120.4
			v72.7c42.3-59.6,95.4-84.6,156.2-84.6C8586.4,763.5,8641.7,814.5,8648.2,889.3z"/>
		<path class="st13" d="M9161.2,895.8l-109.5,41.2c-13-29.3-54.2-54.2-104.1-54.2c-75.9,0-116,59.6-116,160.5
			s40.1,163.8,117.1,163.8c48.8,0,90-24.9,103-54.2l109.5,41.2c-35.8,93.3-115,132.3-207.1,132.3c-163.8,0-254.9-122.5-254.9-283.1
			s91.1-279.8,253.8-279.8C9046.3,763.5,9125.4,802.6,9161.2,895.8z"/>
		<path class="st13" d="M9608,1315.5h-344.9v-124.7h110.6V900.2h-110.6V775.5H9505v415.4h103V1315.5z M9454,711.5h-113.9
			l104.1-209.3H9595L9454,711.5z"/>
		<path class="st13" d="M10162.2,1315.5h-119.3v-54.2c-23.9,36.9-71.6,65.1-150.7,65.1c-126.9,0-187.6-72.7-187.6-167
			c0-99.8,66.2-172.4,203.9-172.4c54.2,0,96.5,10.8,121.5,23.9v-51c0-53.1-35.8-75.9-88.9-75.9c-47.7,0-81.3,18.4-99.8,47.7
			l-113.9-48.8c40.1-79.2,122.5-119.3,223.4-119.3c137.7,0,211.5,75.9,211.5,193V1315.5z M10029.9,1099.7
			c-20.6-13-61.8-24.9-101.9-24.9c-65.1,0-94.4,31.5-94.4,73.7c0,47.7,36.9,67.2,78.1,67.2c48.8,0,96.5-28.2,118.2-65.1V1099.7z"/>
	</g>
</g>
<g id="Capa_7">
	<g>
		<path class="st20" d="M2163.1,1464.1c-19.8-4.3-36.9-14.5-51.4-30.7c-14.5-16.3-21.7-41.3-21.7-75.2c0-47.3,14.3-110.8,42.9-190.6
			s66.2-159.9,112.8-240.4c-35.3,2.1-63.2,7.4-83.7,15.9c-20.5,8.5-33.9,21.5-40.3,39.2c2.8,0,5.8,3.5,9,10.6
			c3.2,7.1,4.8,14.5,4.8,22.2c0,12.7-5.7,22.8-17,30.2s-25.4,11.1-42.3,11.1c-19.8,0-35.7-5.3-47.7-15.9s-18-25.8-18-45.5
			c0-24,9.3-45.9,28.1-65.7c18.7-19.8,44.7-35.5,77.8-47.1s69.9-17.5,110.2-17.5c14.8,0,33.2,1.1,55.1,3.2
			c57.9-91.8,119.1-166.8,183.8-225c64.6-58.3,126.2-87.4,184.8-87.4c33.9,0,61.8,5,83.7,14.8l-166.3,779.5h-152.5l81.5-384.5
			c-26.1-12-50.1-20.8-72-26.5c-21.9-5.7-45.2-9.5-69.9-11.7c-40.3,86.8-73.3,175.6-99,266.4c-25.8,90.7-38.7,163.3-38.7,217.6
			c0,26.8,4.9,46.6,14.8,59.3C2205.8,1470.5,2182.9,1468.4,2163.1,1464.1z M2567.7,630.6c-30.4,16.3-62,46.4-94.8,90.6
			c-32.8,44.1-64.8,97.6-95.8,160.4c50.8,9.9,93.9,22.3,129.2,37.1L2567.7,630.6z"/>
		<path class="st20" d="M2731.3,1324.3c-20.8-21.2-31.2-53-31.2-95.3c0-17.7,2.8-40.6,8.5-68.8l113.3-530.6l156.7-21.2l-121.8,571.9
			c-2.8,10.6-4.2,21.9-4.2,33.9c0,14.1,3.3,24.2,10.1,30.2c6.7,6,17.8,9,33.4,9c20.5,0,39.5-8.6,57.2-25.9s30.4-39.7,38.1-67.3h44.5
			c-26.1,76.3-59.7,128-100.6,155.2s-81.5,40.8-121.8,40.8C2779.5,1356.1,2752.1,1345.5,2731.3,1324.3z"/>
		<path class="st20" d="M3029.4,1314.8c-34.6-27.5-51.9-71.3-51.9-131.3c0-46.6,9.5-98.8,28.6-156.7s50.1-108.4,93.2-151.5
			s97.8-64.6,164.2-64.6c77.7,0,116.5,33.9,116.5,101.7c0,39.5-11.3,75.9-33.9,109.1s-52.6,59.8-90,80s-77.7,31.6-120.7,34.4
			c-0.7,6.4-1,15.9-1,28.6c0,69.9,35.3,104.9,105.9,104.9c40.2,0,83.3-10.6,129.2-31.8c45.9-21.2,85.8-50.8,119.7-89l-60.4-328.3
			H3578l41.3,228.8c31.8-33.9,56.5-65.7,74.1-95.3s26.5-54,26.5-73.1c0-6.3-0.4-10.6-1.1-12.7c-9.9,1.4-16.3,2.1-19.1,2.1
			c-17,0-29.3-5.3-37.1-15.9s-11.6-23.7-11.6-39.2c0-17.6,5.3-31,15.9-40.2s24.4-13.8,41.3-13.8c24,0,42.4,8.7,55.1,26
			c12.7,17.3,19.1,39.4,19.1,66.2c0,33.9-11.7,70.3-35,109.1c-23.3,38.8-62.1,87.6-116.5,146.2l9.5,51.9c0.7,3.5,3,14.7,6.9,33.4
			c3.9,18.7,10.4,33.4,19.6,44c9.2,10.6,21.2,15.9,36,15.9c20.5,0,39.5-8.6,57.2-25.9s30.4-39.7,38.1-67.3h44.5
			c-26.1,76.3-59,128-98.5,155.2c-39.5,27.2-78.4,40.8-116.5,40.8c-35.3,0-62.1-10.9-80.5-32.8s-33.9-60-46.6-114.4
			c-42.4,44.5-94.1,80.1-155.2,107c-61.1,26.8-120.9,40.3-179.5,40.3C3109.5,1356.1,3064,1342.3,3029.4,1314.8z M3219.5,1058.5
			c23.7-16.9,42.7-38.7,57.2-65.1s21.7-54.2,21.7-83.1s-8.8-43.4-26.5-43.4c-24.7,0-49.4,22.8-74.1,68.3
			c-24.7,45.5-42.7,95.5-54,149.9C3170.6,1084.3,3195.9,1075.5,3219.5,1058.5z"/>
		<path class="st20" d="M3824.8,1314.8c-26.8-27.5-40.2-70.6-40.2-129.2c0-52.3,10.4-107.1,31.2-164.7
			c20.8-57.5,51.9-106.3,93.2-146.2c41.3-39.9,90.5-59.8,147.8-59.8c28.9,0,50.5,5,64.6,14.8c14.1,9.9,21.2,23,21.2,39.2v7.4
			l11.7-56.1h152.5l-76.3,360.1c-2.8,10.6-4.2,21.9-4.2,33.9c0,30.4,14.5,45.5,43.4,45.5c19.8,0,36.9-9.2,51.4-27.5s26-42.4,34.4-72
			h44.5c-26.1,76.3-58.4,128-96.9,155.2c-38.5,27.2-77.1,40.8-116,40.8c-29.7,0-53.5-8.3-71.5-24.9s-28.8-40.8-32.3-72.5
			c-20.5,29-43.3,52.4-68.3,70.4s-54.9,27-89.5,27C3885.2,1356.1,3851.6,1342.3,3824.8,1314.8z M4046.7,1228.5
			c17.3-16.6,29.1-39.4,35.5-68.3l50.8-239.4c0-9.2-3.5-18.2-10.6-27c-7.1-8.8-18-13.2-32.8-13.2c-28.3,0-53.7,16.4-76.3,49.3
			s-40.3,72.4-53,118.6c-12.7,46.3-19.1,87-19.1,122.3c0,35.3,5.1,57.9,15.3,67.8c10.2,9.9,22.8,14.8,37.6,14.8
			C4011.9,1253.4,4029.4,1245.1,4046.7,1228.5z"/>
		<path class="st20" d="M4642.9,1321.7c-20.1-22.9-30.2-51.4-30.2-85.3c0-14.8,1.8-31.6,5.3-50.3s7.2-36.9,11.1-54.5s6.5-29,8-33.9
			c5.6-24.7,10.9-49.1,15.9-73.1c4.9-24,7.4-43.4,7.4-58.3c0-36-12.7-54-38.1-54c-18.4,0-34.6,9-48.7,27s-25.4,41.5-33.9,70.4
			l-72,340h-152.5l112.3-529.5h152.5l-11.7,55.1c35.3-39.5,76.6-59.3,123.9-59.3c36,0,64.6,9.9,85.8,29.7
			c21.2,19.8,31.8,49.8,31.8,90c0,20.5-2.5,43.3-7.4,68.3s-12,55.6-21.2,91.6c-5.7,21.9-10.8,43.3-15.4,64.1s-6.9,37.2-6.9,49.2
			c0,14.1,3.2,25.1,9.5,32.8c6.3,7.8,17.3,11.6,32.8,11.6c21.2,0,38.1-7.6,50.8-22.8c12.7-15.2,25.4-38.7,38.1-70.4h44.5
			c-26.1,77.7-56.3,129.8-90.6,156.2c-34.3,26.5-69.7,39.7-106.4,39.7C4694.6,1356.1,4663.1,1344.6,4642.9,1321.7z"/>
		<path class="st20" d="M4916.7,1314.8c-26.8-27.5-40.2-70.6-40.2-129.2c0-52.3,10.4-107.1,31.2-164.7
			c20.8-57.5,51.9-106.3,93.2-146.2c41.3-39.9,90.5-59.8,147.8-59.8c28.9,0,50.5,5,64.6,14.8c14.1,9.9,21.2,23,21.2,39.2v4.2
			l51.9-243.6l156.8-21.2l-121.8,571.9c-2.8,10.6-4.2,21.9-4.2,33.9c0,14.1,3.3,24.2,10.1,30.2c6.7,6,17.8,9,33.4,9
			c19.8,0,36.9-8.5,51.4-25.4c14.5-16.9,26-39.5,34.4-67.8h44.5c-43.1,126.4-114,189.6-212.9,189.6c-29,0-52.4-7.8-70.4-23.3
			s-29.1-38.1-33.3-67.8c-18.4,28.3-40.4,51.5-66.2,69.9c-25.8,18.4-56,27.5-90.5,27.5C4977.1,1356.1,4943.5,1342.3,4916.7,1314.8z
			 M5137.5,1230.1c17.3-15.5,29.1-37.1,35.5-64.6v-5.3l51.9-242.5c-6.4-24.7-20.8-37.1-43.4-37.1c-28.3,0-53.7,16.4-76.3,49.3
			s-40.3,72.4-53,118.6c-12.7,46.3-19.1,87-19.1,122.3c0,35.3,5.1,57.9,15.3,67.8c10.2,9.9,22.8,14.8,37.6,14.8
			C5103.1,1253.4,5120.2,1245.6,5137.5,1230.1z"/>
		<path class="st20" d="M5518.2,820.2h152.5l-13.8,65.7c24-21.2,45.7-37.4,65.1-48.7c19.4-11.3,40.4-17,63-17s40.4,7.8,53.5,23.3
			s19.6,34.3,19.6,56.1c0,20.5-6.7,38.5-20.1,54c-13.4,15.5-32.1,23.3-56.1,23.3c-15.5,0-26-3.7-31.3-11.1
			c-5.3-7.4-9.4-18.2-12.2-32.3c-2.1-9.2-4.3-15.9-6.4-20.1c-2.1-4.2-6-6.4-11.6-6.4c-14.8,0-27.4,3-37.6,9
			c-10.3,6-23.5,16.4-39.7,31.3l-84.7,402.5H5406L5518.2,820.2z"/>
		<path class="st20" d="M5870.9,1314.8c-26.8-27.5-40.2-70.6-40.2-129.2c0-52.3,10.4-107.1,31.2-164.7
			c20.8-57.5,51.9-106.3,93.2-146.2c41.3-39.9,90.5-59.8,147.8-59.8c28.9,0,50.5,5,64.6,14.8c14.1,9.9,21.2,23,21.2,39.2v7.4
			l11.7-56.1h152.5l-76.3,360.1c-2.8,10.6-4.2,21.9-4.2,33.9c0,14.1,3.3,24.2,10.1,30.2c6.7,6,17.8,9,33.4,9
			c9.9,0,17.6-1.4,23.3-4.2c-15.5,39.5-30.4,67.3-44.5,83.1c-14.1,15.9-34.6,23.8-61.4,23.8c-29,0-52.4-8.6-70.4-26
			c-18-17.3-29.1-41.5-33.4-72.5c-43.1,65.7-95.7,98.5-157.8,98.5C5931.3,1356.1,5897.7,1342.3,5870.9,1314.8z M6092.8,1228.5
			c17.3-16.6,29.1-39.4,35.5-68.3l50.8-239.4c0-9.2-3.5-18.2-10.6-27c-7.1-8.8-18-13.2-32.8-13.2c-28.3,0-53.7,16.4-76.3,49.3
			s-40.3,72.4-53,118.6c-12.7,46.3-19.1,87-19.1,122.3c0,35.3,5.1,57.9,15.3,67.8c10.2,9.9,22.8,14.8,37.6,14.8
			C6058,1253.4,6075.5,1245.1,6092.8,1228.5z"/>
		<path class="st20" d="M6689.1,1529.3c-31.4-26.5-47.1-61.3-47.1-104.3c0-26.8,6.3-51.5,19.1-74.1c12.7-22.6,30-40.4,51.9-53.5
			s45.9-19.6,72-19.6c26.8,0,48.5,6.7,65.1,20.1c16.6,13.4,24.9,31.1,24.9,53c0,16.9-3.9,30.4-11.7,40.2c-6.4-8.5-15-15.2-26-20.1
			c-10.9-5-22.4-7.4-34.4-7.4c-21.2,0-38.5,7-51.9,21.2c-13.4,14.1-20.1,32.5-20.1,55.1s6.5,41,19.6,55.1s29.5,21.2,49.2,21.2
			c24.7,0,45.9-11,63.5-32.8c17.7-21.9,31.1-54.4,40.3-97.4l53-234.1h-4.2c-19.1,26.8-42.2,47.3-69.4,61.4s-57,21.2-89.5,21.2
			c-41,0-77-10.9-108-32.8s-54.9-53.1-71.5-93.7S6589,1020,6589,966.4c0-77.7,16.9-148.4,50.8-212.3s80.5-114.2,139.8-150.9
			s124.6-55.1,195.9-55.1c60,0,107.5,13.1,142.5,39.2c34.9,26.1,52.4,61.8,52.4,107c0,30.4-7.4,54.7-22.3,73.1
			c-14.8,18.4-34.2,27.5-58.2,27.5c-13.4,0-26-2.8-37.6-8.5c-11.7-5.6-21.4-13.8-29.1-24.4c12.7-8.5,23.5-22,32.3-40.8
			c8.8-18.7,13.2-37.6,13.2-56.7c0-21.2-6.2-37.6-18.5-49.2c-12.4-11.7-29.8-17.5-52.4-17.5c-41,0-80.5,18.2-118.6,54.5
			s-68.8,83.8-92.1,142.4c-23.3,58.6-35,120-35,184.3c0,53,8.5,93.4,25.4,121.3c16.9,27.9,41.3,41.8,73.1,41.8
			c38.1,0,71.8-20.1,101.1-60.4c29.3-40.3,52.8-98.9,70.4-175.8l125,1.1l-77.3,355.9c-22.6,105.2-54.5,182.5-95.9,231.9
			c-41.3,49.4-94.8,74.1-160.4,74.1C6762,1569,6720.5,1555.7,6689.1,1529.3z"/>
		<path class="st20" d="M7207.5,1314.8c-26.8-27.5-40.2-70.6-40.2-129.2c0-52.3,10.4-107.1,31.2-164.7
			c20.8-57.5,51.9-106.3,93.2-146.2c41.3-39.9,90.5-59.8,147.8-59.8c28.9,0,50.5,5,64.6,14.8c14.1,9.9,21.2,23,21.2,39.2v7.4
			l11.7-56.1h152.5l-76.3,360.1c-2.8,10.6-4.2,21.9-4.2,33.9c0,30.4,14.5,45.5,43.4,45.5c19.8,0,36.9-9.2,51.4-27.5s26-42.4,34.4-72
			h44.5c-26.1,76.3-58.4,128-96.9,155.2c-38.5,27.2-77.1,40.8-116,40.8c-29.7,0-53.5-8.3-71.5-24.9s-28.8-40.8-32.3-72.5
			c-20.5,29-43.3,52.4-68.3,70.4s-54.9,27-89.5,27C7267.8,1356.1,7234.3,1342.3,7207.5,1314.8z M7429.4,1228.5
			c17.3-16.6,29.1-39.4,35.5-68.3l50.8-239.4c0-9.2-3.5-18.2-10.6-27c-7.1-8.8-18-13.2-32.8-13.2c-28.3,0-53.7,16.4-76.3,49.3
			s-40.3,72.4-53,118.6c-12.7,46.3-19.1,87-19.1,122.3c0,35.3,5.1,57.9,15.3,67.8c10.2,9.9,22.8,14.8,37.6,14.8
			C7394.6,1253.4,7412,1245.1,7429.4,1228.5z"/>
		<path class="st20" d="M7810.1,820.2h152.5l-13.8,65.7c24-21.2,45.7-37.4,65.1-48.7c19.4-11.3,40.4-17,63-17s40.4,7.8,53.5,23.3
			s19.6,34.3,19.6,56.1c0,20.5-6.7,38.5-20.1,54c-13.4,15.5-32.1,23.3-56.1,23.3c-15.5,0-26-3.7-31.3-11.1
			c-5.3-7.4-9.4-18.2-12.2-32.3c-2.1-9.2-4.3-15.9-6.4-20.1c-2.1-4.2-6-6.4-11.6-6.4c-14.8,0-27.4,3-37.6,9
			c-10.3,6-23.5,16.4-39.7,31.3l-84.7,402.5h-152.5L7810.1,820.2z"/>
		<path class="st20" d="M8165.9,1315.3c-29-27.2-43.4-69.7-43.4-127.6c0-48.7,9.7-102.4,29.1-161s50.5-109.3,93.2-152
			s96.9-64.1,162.6-64.1c42.4,0,72.5,9.2,90.5,27.5s27,41.7,27,69.9c0,24.7-5.3,43.8-15.9,57.2c-10.6,13.4-24,20.1-40.2,20.1
			c-12,0-24.4-4.2-37.1-12.7c8.5-23.3,12.7-44.1,12.7-62.5c0-13.4-2.5-24-7.4-31.8c-4.9-7.8-12.4-11.7-22.2-11.7
			c-21.2,0-42.4,17.3-63.6,51.9s-38.5,76.6-51.9,126c-13.4,49.4-20.1,93.9-20.1,133.4c0,34.6,6,58.1,18,70.4
			c12,12.4,31.4,18.5,58.3,18.5c38.1,0,70.8-8.8,98-26.5s57-44.5,89.5-80.5h36c-78.4,130.6-175.5,195.9-291.3,195.9
			C8235.5,1356.1,8194.9,1342.5,8165.9,1315.3z"/>
		<path class="st20" d="M8565.7,1324.3c-20.8-21.2-31.2-53-31.2-95.3c0-17.7,2.8-40.6,8.5-68.8l72-340h152.5l-76.3,360.1
			c-2.8,10.6-4.2,21.9-4.2,33.9c0,14.1,3.3,24.2,10.1,30.2c6.7,6,17.8,9,33.4,9c20.5,0,39.5-8.6,57.2-25.9s30.4-39.7,38.1-67.3h44.5
			c-26.1,76.3-59.7,128-100.6,155.2s-81.5,40.8-121.8,40.8C8613.9,1356.1,8586.5,1345.5,8565.7,1324.3z M8756.9,555.4h111.2
			l-128.2,200.2h-79.4L8756.9,555.4z"/>
		<path class="st20" d="M8852.2,1314.8c-26.8-27.5-40.2-70.6-40.2-129.2c0-52.3,10.4-107.1,31.2-164.7
			c20.8-57.5,51.9-106.3,93.2-146.2c41.3-39.9,90.5-59.8,147.8-59.8c28.9,0,50.5,5,64.6,14.8c14.1,9.9,21.2,23,21.2,39.2v7.4
			l11.7-56.1h152.5l-76.3,360.1c-2.8,10.6-4.2,21.9-4.2,33.9c0,14.1,3.3,24.2,10.1,30.2c6.7,6,17.8,9,33.4,9
			c9.9,0,17.6-1.4,23.3-4.2c-15.5,39.5-30.4,67.3-44.5,83.1c-14.1,15.9-34.6,23.8-61.4,23.8c-29,0-52.4-8.6-70.4-26
			c-18-17.3-29.1-41.5-33.4-72.5c-43.1,65.7-95.7,98.5-157.8,98.5C8912.6,1356.1,8879,1342.3,8852.2,1314.8z M9074.1,1228.5
			c17.3-16.6,29.1-39.4,35.5-68.3l50.8-239.4c0-9.2-3.5-18.2-10.6-27c-7.1-8.8-18-13.2-32.8-13.2c-28.3,0-53.7,16.4-76.3,49.3
			s-40.3,72.4-53,118.6c-12.7,46.3-19.1,87-19.1,122.3c0,35.3,5.1,57.9,15.3,67.8c10.2,9.9,22.8,14.8,37.6,14.8
			C9039.3,1253.4,9056.8,1245.1,9074.1,1228.5z"/>
	</g>
</g>
</svg>
